<?xml version="1.0" encoding="UTF-8" standalone="no"?> <!-- Created with Vectornator for iOS (http://vectornator.io/) --><!DOCTYPE svg PUBLIC "-//W3C//DTD SVG 1.1//EN" "http://www.w3.org/Graphics/SVG/1.1/DTD/svg11.dtd">
<svg width="100%" height="100%" xmlns:vectornator="http://vectornator.io" viewBox="0 0 370.277 463.723" xmlns:xlink="http://www.w3.org/1999/xlink" xml:space="preserve" xmlns="http://www.w3.org/2000/svg" version="1.1" style="fill-rule:nonzero;clip-rule:evenodd;stroke-linecap:round;stroke-linejoin:round;">
<metadata>
<vectornator:setting key="WDSnapToPoints" value="false"/>
<vectornator:setting key="WDOutlineMode" value="false"/>
<vectornator:setting key="WDUnits" value="Points"/>
<vectornator:setting key="WDSnapToEdges" value="false"/>
<vectornator:setting key="WDRulersVisible" value="true"/>
<vectornator:setting value="true" key="WDGuidesVisible"/>
<vectornator:setting key="VNSnapToGuides" value="true"/>
<vectornator:setting key="WDDynamicGuides" value="false"/>
<vectornator:setting key="WDIsolateActiveLayer" value="false"/>
<vectornator:setting value="true" key="UndoHistoryDisabled"/>
<vectornator:setting key="VNDimensionsVisible" value="true"/>
<vectornator:setting value="false" key="IsTimeLapseWatermarkDisabled"/>
<vectornator:setting value="false" key="WDCMYKEnabledKey"/>
<vectornator:setting value="false" key="WDSnapToGrid"/>
<vectornator:setting value="false" key="WDDisplayWhiteBackground"/>
</metadata>
<defs/>
<g id="Full" vectornator:layerName="Full">
<path stroke="#fef6ec" stroke-linejoin="round" stroke-width="1" d="M78.2587+426.338C78.2587+427.981+78.1923+428.232+76.7707+428.942C77.5147+428.942+77.5147+428.942+78.2587+428.942C74.8265+429.514+74.2228+430.97+78.2587+431.546C78.2587+432.94+78.5914+432.496+77.5147+433.034C78.0531+434.111+77.8867+433.501+77.8867+434.894C75.5512+434.31+76.4131+432.29+73.7947+432.29C74.3527+432.476+74.3527+432.476+74.9107+432.662C74.9107+434.428+75.3543+433.928+74.1667+434.522C74.3527+435.08+74.3527+435.08+74.5387+435.638C71.1205+435.638+66.9947+430.341+71.1907+428.942C71.1907+429.314+71.1907+429.314+71.1907+429.686C71.7487+429.686+71.7487+429.686+72.3067+429.686C72.4927+430.244+72.4927+430.244+72.6787+430.802C72.9811+429.291+73.7504+427.454+75.6547+427.454C75.6547+427.826+75.6547+427.826+75.6547+428.198C75.8407+427.64+75.8407+427.64+76.0267+427.082C77.1214+427.082+77.164+426.338+78.2587+426.338Z" opacity="1" stroke-linecap="round" fill="#fef6ec"/>
<path stroke="#fef6ec" stroke-linejoin="round" fill="#fef6ec" opacity="1" stroke-width="1" stroke-linecap="round" d="M70.0747+422.618C70.0747+424.756+69.7974+423.924+70.4467+425.222C68.7169+426.952+69.3307+425.812+69.3307+428.942C67.269+427.911+66.7267+429.472+66.7267+431.174C64.4746+431.174+65.4549+431.37+63.7507+430.802C63.9987+430.306+64.2467+429.81+64.4947+429.314C62.8565+428.495+63.7851+429.217+63.3787+425.966C62.8207+425.966+62.8207+425.966+62.2627+425.966C63.0067+425.78+63.0067+425.78+63.7507+425.594C63.7507+424.339+63.8108+425.091+63.3787+423.362C65.042+423.06+68.428+423.167+70.0747+422.618Z"/>
<path fill="#ffffff" d="M61.2429+252.253C61.2429+157.082+115.571+79.9298+182.588+79.9298C249.605+79.9298+303.933+157.082+303.933+252.253C303.933+347.425+249.605+424.577+182.588+424.577C115.571+424.577+61.2429+347.425+61.2429+252.253Z" stroke-linejoin="round" stroke-width="10" opacity="1" stroke-linecap="round" stroke="#ffffff"/>
<path stroke-linecap="round" opacity="1" fill="#000000" stroke="#000000" stroke-width="10" stroke-linejoin="round" d="M150.373+404.851C150.373+404.851+155.97+414.412+163.866+419.331C171.761+424.25+181.955+424.527+181.955+424.527C181.955+424.527+192.427+423.908+200.701+419.4C208.976+414.892+215.053+406.495+215.053+406.495L202.11+411.609L194.699+406.141L189.294+412.782L181.972+405.654L173.757+412.301L167.451+405.604L162.006+411.263L150.373+404.851Z"/>
<path stroke-width="10" opacity="1" stroke="#000000" fill="#000000" d="M75.3187+221.79C75.3187+206.914+95.4039+194.855+120.18+194.855C144.957+194.855+165.042+206.914+165.042+221.79C165.042+236.666+144.957+248.725+120.18+248.725C95.4039+248.725+75.3187+236.666+75.3187+221.79Z" fill-opacity="0" stroke-linecap="round" stroke-linejoin="round"/>
<path stroke-width="10" d="M200.207+221.58C200.207+206.704+220.292+194.645+245.068+194.645C269.845+194.645+289.93+206.704+289.93+221.58C289.93+236.456+269.845+248.516+245.068+248.516C220.292+248.516+200.207+236.456+200.207+221.58Z" stroke-linecap="round" fill-opacity="0" opacity="1" stroke="#000000" stroke-linejoin="round" fill="#000000"/>
<path stroke-linecap="round" stroke-linejoin="round" stroke-width="10" opacity="1" stroke="#000000" fill="none" d="M73.9967+222.805L58.0644+204.65"/>
<path fill="none" stroke-width="10" stroke="#000000" stroke-linejoin="round" stroke-linecap="round" d="M294.145+220.02L312.3+204.088" opacity="1"/>
<path fill="#000000" stroke-linejoin="round" stroke-width="10" d="M92.2371+135.703C92.2371+135.703+103.871+117.408+124.969+99.4325C146.068+81.4574+178.005+75.8225+178.005+75.8225C178.005+75.8225+214.895+80.5686+238.354+96.0688C261.814+111.569+270.079+132.172+270.079+132.172C270.079+132.172+267.709+133.097+261+132.55L250.255+118.316L113.541+119.923L101.03+135.651C96.734+135.686+92.2371+135.703+92.2371+135.703Z" stroke="#000000" stroke-linecap="round" opacity="1"/>
</g>
</svg>
